<svg xmlns="http://www.w3.org/2000/svg" viewBox="0 0 1600 500">
	<defs>
		<style>.cls-1-w{fill:#fff;}.cls-2-w,.cls-3-w{fill:#def;}.cls-3-w{fill-rule:evenodd;}</style>
	</defs>
	<path class="cls-1-w" d="M174.73,121.92V49.6h135V81L246.09,270.4h-46.4l64-182.72H212.81v34.24Z"/>
	<path class="cls-1-w"
		  d="M372.49,137.6h16.32c18.24,0,30.72-9.6,30.72-28.16,0-14.72-11.2-25.6-27.52-25.6-15.68,0-25.6,9.92-27.52,23.68H324.81c1.6-36.16,31.36-60.81,69.44-60.81,40.32,0,69.76,27.85,69.76,60.81,0,25-15.36,40.32-30.08,48.32,18.88,9.28,33.28,26.56,33.28,52.8,0,35.84-25,64.64-70.4,64.64-46.72,0-73.28-26.24-74.88-62.08h39.36c2.24,14.08,12.8,24.32,32.64,24.32,17.92,0,28.8-12.8,28.8-29.12,0-19.52-11.2-31-33.92-31H372.49Z"/>
	<path class="cls-1-w"
		  d="M586.25,154.88c-4.16-6.08-9.92-12.16-20.16-12.16-15.36,0-25.6,11.2-25.6,33.6V270.4h-41v-160h40v13.44c5.44-8,16-16.32,34.88-16.32q28.8,0,43.2,25Z"/>
	<path class="cls-1-w"
		  d="M722.56,49.6H763.2V270.4H722.56v-9.28c-8.32,7.68-19.2,12.16-34.24,12.16C646.4,273.28,625,243.52,625,201V179.2c0-46.72,25.28-71.68,63.36-71.68,13.76,0,25.28,3.52,34.24,11.2Zm0,148.8V178.24c0-23.36-9.28-36.16-28.48-36.16-20.16,0-28.48,14.08-28.48,39.68V198.4c0,23,6.4,40.32,28.48,40.32C717.12,238.72,722.56,221.44,722.56,198.4Z"/>
	<path class="cls-1-w"
		  d="M858.56,270.4l76.8-220.8h42.88L1055,270.4h-47.68l-13.44-41.92H920L906.56,270.4Zm73.28-79.68h49.92L956.8,113Z"/>
	<path class="cls-1-w"
		  d="M1079,125.4V101.76c0-41.28,16-52.16,54.72-52.16h11.84V85.44h-7.68c-15,0-18.24,6.72-18.24,22.72V125.4h25.92V160h-25.92V270.4H1079V160h-20.48V125.4Z"/>
	<path class="cls-1-w"
		  d="M1290.56,246.08c-11.2,19.52-29.76,27.2-58.56,27.2-48,0-71-31-71-72.32V179.2c0-48.32,24.32-71.68,65.92-71.68,45.12,0,65.92,26.24,65.92,74.88v18.24h-91.2c.32,22.08,7.36,38.08,30.08,38.08,17,0,22.4-5.12,28.48-13.76Zm-89-74.56h50.24c-1-20.8-9.28-29.44-24.64-29.44C1210.88,142.08,1203.2,153.28,1201.6,171.52Z"/>
	<path class="cls-1-w"
		  d="M1401.92,155.52c-7-8.32-14.08-12.8-31.36-12.8-10.56,0-20.16,3.2-20.16,12.48,0,9.6,8.64,13.12,25.6,15.68,39.36,6.08,59.2,21.12,59.2,52.8,0,30.72-21.44,49.6-62.72,49.6-32.65,0-52.49-8-66.25-26.56l31.36-22.4c6.41,8.64,14.41,13.76,34.25,13.76,14.08,0,22.72-4.8,22.72-13.12,0-9.92-7-13.12-27.2-16.32-33.28-5.44-57.61-19.52-57.61-51.84,0-30.4,21.76-49.28,61.77-49.28,26.24,0,48,6.08,60.48,26.56Z"/>
	<path class="cls-1-w"
		  d="M245.58,411c-2.12,2-7.12,5.63-11.5,5-5.25-.62-8-7.37-7.75-13.75.25-5.5,3.88-16.5,4.63-18.75s1-5.25-1.75-4.87c-3.38.37-9.25,7.12-13.75,15.12a87.11,87.11,0,0,0-7.5,18.88,2.88,2.88,0,0,1-2.25,1.87,28.6,28.6,0,0,1-5.5.5,2.18,2.18,0,0,1-2-2.87c.5-2.13,1.62-9.5,2.62-15.88s3.5-17.12.75-17.12-8.75,6.62-12.75,14a124.07,124.07,0,0,0-8.25,20.25c-.37,1.62-2.75,1.62-4.75,1.75s-5,.37-5-1.88a152.17,152.17,0,0,1,2-19.87c1.38-8.13,3.5-16.63,4.88-17.5,1.12-.75,3.25-.75,4.5-.75,1,.12,3.5,1,3.25,2.37s-3.38,18.25-3.63,19.75c-.12.63,0,1,.13,1s.75-.37,1.12-1.25c.75-1.37,4.25-8.25,6.75-11.62s9.25-11.5,15.5-10.25c6.5,1.5,5.63,8,5.5,11s-.5,8.25-.5,9.37c0,.5.13.75.38.63s.5-.25.75-.88a89.7,89.7,0,0,1,6.37-11.12c2.75-3.75,8.88-11,15.13-9.25s6.87,8,6.62,11.25-2,11.75-2.87,16.12c-.88,4.63-2.88,9-.38,9.75s7.75-4,9.63-6.5a48.82,48.82,0,0,0,4-6.12,1.54,1.54,0,0,1,1.75-.63c.62.25,1.12,1.13.25,3.13A29.32,29.32,0,0,1,245.58,411Z"/>
	<path class="cls-1-w"
		  d="M296.83,411.51c-2.13,2.13-5.63,4.88-10.75,4.13-4.38-.63-7-4.25-7.75-9.88-4.5,7.13-12.63,11.25-19.5,9.88-5.13-1.13-10.63-6.38-10.63-14.75a24.55,24.55,0,0,1,2.75-11c5.25-10.88,14.88-15.25,21.63-15.25a10,10,0,0,1,5.37,1.25,13.24,13.24,0,0,1,4.75,4.87,34.54,34.54,0,0,1,2.13-4,5,5,0,0,1,4.62-1.87c1.5.12,3.5.62,3.25,1.87-.75,3.38-3,10.5-4.25,17a78.69,78.69,0,0,0-1.62,13c0,2.5.37,4.25,1.37,4.75,2.5,1.25,6.5-2.25,9-5.25a34.43,34.43,0,0,0,4.25-6.62c.88-1.75,3.63-1,2.38,1.75S299.45,409,296.83,411.51Zm-21.5-33c-8-2.25-12.75,9.25-14.63,16.5a46.08,46.08,0,0,0-1.87,11c0,3.13.87,5.63,3.12,6.25,5.13,1.5,10.13-3.62,13.38-8.62a39.84,39.84,0,0,0,3.12-5.88,65.16,65.16,0,0,1,2.25-10.87C280.58,383.76,279.45,379.76,275.33,378.51Z"/>
	<path class="cls-1-w"
		  d="M351.83,402.51a38,38,0,0,1-8.38,10.25,15.58,15.58,0,0,1-11.62,3.13c-4-.75-7.5-4.38-6.38-8.88.63-2.37,1.75-6,1.75-8.62,0-1.88-.62-3.38-2.62-3.38-4.63,0-8.25,4.75-10.38,8.75a65.5,65.5,0,0,0-3.87,9.13c-.38,1.25-1.38,2-4.5,2.12s-5.5.63-5.5-2,1.5-22.87,6.75-47.25c4.75-21.62,12.62-40.62,25-38.62,5,.87,6.75,4.25,6.75,8.87,0,6.88-4.13,16.25-7.38,22.5-5.25,9.63-16.5,26.38-19.12,29.5-1.13,8.63-1.38,12-1.38,12.5-.25.88.38.5.88-.75a88.45,88.45,0,0,1,9-13c4.12-4.62,11.75-12.25,18.5-11.87,6.37.5,5.37,5.37,4.62,6.87a5.26,5.26,0,0,1-5.62,2.88c-2.63-.38-4-2.88-6.5-2.38-3.5.63-9.25,7.63-10.38,9.25s.13,1.13.75.75a11.81,11.81,0,0,1,4.75-.87,14.73,14.73,0,0,1,4.5.75c3.63,1.25,6.63,4,5.75,8s-2.62,10.37-1,11.12c2.38,1.13,5.38-.87,7.75-3.12a29.9,29.9,0,0,0,5.63-7.88c.62-1.25,1.87-1.37,2.37-.62A2.92,2.92,0,0,1,351.83,402.51Zm-36.38-33.62c-.75,3.75-1.25,7.12-1.62,10,3-2.88,8-9.25,13.25-19.13,5.37-10.12,8.25-18.37,8.25-23.62,0-3.13-1.13-5.13-3.25-5.75C324.7,328.51,319.33,345.76,315.45,368.89Z"/>
	<path class="cls-1-w"
		  d="M382.2,412.89a32.17,32.17,0,0,1-13.75,3.25,24,24,0,0,1-13.12-3.63c-7-4.5-8-11-7.38-15.5,1.38-9.87,8-15.62,14.25-19.12a28.43,28.43,0,0,1,12.5-3.13c4,0,7.63,1.13,9.5,4.13a8,8,0,0,1,1.25,4.12c0,5.63-5.62,12.13-14.87,16.63A50.49,50.49,0,0,1,359,403.89c.75,4.37,3.13,6.62,5.63,7.62a13.58,13.58,0,0,0,5.75,1.25c3.12,0,6.5-1.12,11-3.37,5.75-2.88,9.75-8.5,10.5-10.38a1.19,1.19,0,0,1,2-.25,2.43,2.43,0,0,1,0,2.75A24,24,0,0,1,382.2,412.89ZM359.58,393a28.69,28.69,0,0,0-1,7.38A22.82,22.82,0,0,0,370,395.76c3.75-3.25,6.38-8.75,6.38-12.75,0-1.87-.63-3.5-2.13-4.12C369.58,376.76,362.2,381.39,359.58,393Z"/>
	<path class="cls-2-w"
		  d="M472.2,411.51c-2.13,2.13-5.63,4.88-10.75,4.13-4.38-.63-7-4.25-7.75-9.88-4.5,7.13-12.63,11.25-19.5,9.88-5.13-1.13-10.63-6.38-10.63-14.75a24.55,24.55,0,0,1,2.75-11C431.57,379,441.2,374.64,448,374.64a10,10,0,0,1,5.37,1.25,13.24,13.24,0,0,1,4.75,4.87,34.54,34.54,0,0,1,2.13-4,5,5,0,0,1,4.62-1.87c1.5.12,3.5.62,3.25,1.87-.75,3.38-3,10.5-4.25,17a78.69,78.69,0,0,0-1.62,13c0,2.5.37,4.25,1.37,4.75,2.5,1.25,6.5-2.25,9-5.25a34.43,34.43,0,0,0,4.25-6.62c.88-1.75,3.63-1,2.38,1.75S474.82,409,472.2,411.51Zm-21.5-33c-8-2.25-12.75,9.25-14.63,16.5a46.08,46.08,0,0,0-1.87,11c0,3.13.87,5.63,3.12,6.25,5.13,1.5,10.13-3.62,13.38-8.62a39.84,39.84,0,0,0,3.12-5.88,65.16,65.16,0,0,1,2.25-10.87C456,383.76,454.82,379.76,450.7,378.51Z"/>
	<path class="cls-2-w"
		  d="M517.45,409.26c-3.13,3-6.88,6.13-15,6.38-5.75.12-13-4.13-17.13-4s-4.75,1.37-5.5,1.87a1.32,1.32,0,0,1-1.62-.5c-.5-.5-.75-1.5,0-2.87,1.5-2.75,6.25-8.38,12.25-13.38a140.3,140.3,0,0,1,14.25-10.5c.37-.25.62-.62.5-.75s-.38-.25-.88-.25a9.7,9.7,0,0,1-5.12,0c-2.5-.62-7.25-3-9.63-3.75-1.87-.62-3.75-1-5.25.13-1.25.87-1.37,3.37-.25,4.12s2.88,4.38.13,6a3.89,3.89,0,0,1-5.88-2.62c-.75-3.38,1.5-8.63,5-11.13a17.48,17.48,0,0,1,12.75-3.25c4.5.63,7,3.75,11.63,3.88s5.62-1.25,6.75-1.88a2.15,2.15,0,0,1,2.12.13c.63.37.88,1,.25,1.87-1.37,1.88-9.87,11.75-14.37,14.75s-12.5,8.88-13.38,9.75c-.62.63-.75.88-.5.88s.38,0,.63-.13a10.73,10.73,0,0,1,4.75.25c2.37.38,10.25,3.38,14.12,3.38a12.28,12.28,0,0,0,8.25-2.5,13.2,13.2,0,0,0,3.25-4.25,2.38,2.38,0,0,1,2.13-1.5c.75.12,1.37.75.87,2.25A22,22,0,0,1,517.45,409.26Z"/>
	<path class="cls-1-w"
		  d="M597.32,412.64a28.72,28.72,0,0,1-12.25,2.62,21.88,21.88,0,0,1-6-.75,17.14,17.14,0,0,1-6,1.25c-12.62.5-19.5-8.12-19.5-17.12.13-13.63,12.25-23.88,24.13-24.13,13.5-.25,18.25,8.75,18.12,16.75-.12,7.13-4.62,15-11.12,19.88a16,16,0,0,0,11.75-1.88A23.16,23.16,0,0,0,605,400a2.24,2.24,0,0,1,2.5-1.12c.75.37,1.12,1.25.37,2.62A26.06,26.06,0,0,1,597.32,412.64Zm-11-22c0-8.63-4-12.5-8.87-12.75-5.63-.13-11.5,4.75-12.88,17.12a43.19,43.19,0,0,0-.37,5.38c0,8.62,3,12.12,8,12s11.87-4.5,13.75-16.75A36.28,36.28,0,0,0,586.32,390.64Z"/>
	<path class="cls-1-w"
		  d="M649.32,411c-2.5,2.38-6.88,5.88-11.38,4.75-5.25-1.12-8.62-6.75-7.5-12.75s4-16.87,4.38-18.5,1.12-4.62-.88-5.25-8.12,3.88-12.87,12.13a139.27,139.27,0,0,0-9.38,21.75c-.5,1.62-2.75,2-4.75,2s-4.87.37-4.75-2,.63-11.5,1.88-20c1.25-8.25,3.12-15.38,4.37-16.63s3-.87,4.63-.87,4,.87,3.5,2.75-4,17.5-4.38,19.25c-.25,1,.13,1.62.5,1.62s1-.25,1.38-1c1-1.62,3.5-7.62,7.5-13.12,3.75-5.38,9.12-11.25,14.87-9.88,5.38,1.5,6.88,6.88,6.88,10,0,4-2.63,15.75-3.25,19.75-.25,1.63-1.25,6.5.37,7,2.13.5,5.13-1.62,7.75-4.62a35.57,35.57,0,0,0,5.38-7.88,1.5,1.5,0,0,1,2.25-.87c.5.37.75,1.12.25,2.5A34.81,34.81,0,0,1,649.32,411Z"/>
	<path class="cls-1-w"
		  d="M685.57,412.89a32.21,32.21,0,0,1-13.75,3.25,24,24,0,0,1-13.13-3.63c-7-4.5-8-11-7.37-15.5,1.37-9.87,8-15.62,14.25-19.12a28.39,28.39,0,0,1,12.5-3.13c4,0,7.62,1.13,9.5,4.13a8,8,0,0,1,1.25,4.12c0,5.63-5.63,12.13-14.88,16.63a50.62,50.62,0,0,1-11.62,4.25c.75,4.37,3.12,6.62,5.62,7.62a13.58,13.58,0,0,0,5.75,1.25c3.13,0,6.5-1.12,11-3.37,5.75-2.88,9.75-8.5,10.5-10.38a1.19,1.19,0,0,1,2-.25,2.41,2.41,0,0,1,0,2.75A24,24,0,0,1,685.57,412.89ZM662.94,393a28.69,28.69,0,0,0-1,7.38,22.81,22.81,0,0,0,11.38-4.63c3.75-3.25,6.37-8.75,6.37-12.75,0-1.87-.62-3.5-2.12-4.12C672.94,376.76,665.57,381.39,662.94,393Z"/>
	<path class="cls-1-w"
		  d="M937.2,400.35c-1.62,3.13-8.08,11.11-15.68,11.49s-14.82-6.93-19.85-6.36-5,3.32-5.7,4.37-4.37,1.42-3.14-1.71,5.51-7.79,9.69-11.4,14.35-11.31,19.67-18.24c3.61-4.66,6.46-10.93,6.46-16.06,0-4-1.81-7.22-6.27-8.26a14.51,14.51,0,0,0-2.85-.29c-5.89,0-11.21,4-12.92,8a11.87,11.87,0,0,0-.86,4.28c0,2.47.86,4.56,1.81,5.32a7.51,7.51,0,0,0,5.32,1.71,1.2,1.2,0,0,1,1.33.95c.28.76-.19,1.71-1.43,2.28a14.08,14.08,0,0,1-5.32.95,9.94,9.94,0,0,1-7.41-2.76,9.43,9.43,0,0,1-2.47-6.65,15.69,15.69,0,0,1,5.23-11.21,26.26,26.26,0,0,1,17.29-6.17,22.57,22.57,0,0,1,12.16,3.23A14.26,14.26,0,0,1,938.81,366,18.75,18.75,0,0,1,933,379.07c-8.08,8-18.34,11.68-22.23,15s-4,3.8-4.28,4.08,0,.57.38.38a15,15,0,0,1,4.94.38c5.23.95,10.55,4.94,14.63,4.75s6.75-3.42,8.17-5.41c1-1.33,2.47-1.33,3-.29A3.37,3.37,0,0,1,937.2,400.35Z"/>
	<path class="cls-1-w"
		  d="M966,411.37c-10.35-.38-19.38-10-19.38-24a32.07,32.07,0,0,1,.29-4.18c2-17,14.63-33.06,28.4-32.49,11.31.57,18.34,10.17,18.34,23.66a42.81,42.81,0,0,1-1,9.5C988.59,402.15,977.29,411.65,966,411.37Zm18.72-41.8c0-10.74-3.42-15.49-8.84-15.87-8.93-.57-14.44,11.21-16.81,26.89a66.72,66.72,0,0,0-.95,11c0,9.69,2.75,16,9,16.24,8.36.48,13.59-7.22,16.53-26.41A84.35,84.35,0,0,0,984.7,369.57Z"/>
	<path class="cls-1-w"
		  d="M1042.36,400.35c-1.61,3.13-8.07,11.11-15.67,11.49s-14.82-6.93-19.86-6.36-5,3.32-5.7,4.37-4.37,1.42-3.13-1.71,5.51-7.79,9.69-11.4,14.34-11.31,19.66-18.24c3.61-4.66,6.46-10.93,6.46-16.06,0-4-1.8-7.22-6.27-8.26a14.51,14.51,0,0,0-2.85-.29c-5.89,0-11.21,4-12.92,8a11.85,11.85,0,0,0-.85,4.28c0,2.47.85,4.56,1.8,5.32a7.52,7.52,0,0,0,5.32,1.71,1.2,1.2,0,0,1,1.33.95c.29.76-.19,1.71-1.42,2.28a14.12,14.12,0,0,1-5.32.95,10,10,0,0,1-7.42-2.76,9.43,9.43,0,0,1-2.46-6.65,15.68,15.68,0,0,1,5.22-11.21,26.26,26.26,0,0,1,17.29-6.17,22.55,22.55,0,0,1,12.16,3.23A14.25,14.25,0,0,1,1044,366a18.72,18.72,0,0,1-5.8,13.11c-8.07,8-18.33,11.68-22.23,15s-4,3.8-4.27,4.08,0,.57.37.38a15.11,15.11,0,0,1,5,.38c5.22.95,10.54,4.94,14.63,4.75s6.74-3.42,8.17-5.41c1-1.33,2.47-1.33,2.94-.29A3.31,3.31,0,0,1,1042.36,400.35Z"/>
	<path class="cls-1-w"
		  d="M1071.15,411.37c-10.36-.38-19.38-10-19.38-24a32,32,0,0,1,.28-4.18c2-17,14.63-33.06,28.41-32.49,11.3.57,18.33,10.17,18.33,23.66a42.77,42.77,0,0,1-1,9.5C1093.76,402.15,1082.45,411.65,1071.15,411.37Zm18.71-41.8c0-10.74-3.42-15.49-8.83-15.87-8.93-.57-14.44,11.21-16.82,26.89a66.72,66.72,0,0,0-1,11c0,9.69,2.76,16,9,16.24,8.36.48,13.58-7.22,16.53-26.41A85.7,85.7,0,0,0,1089.86,369.57Z"/>
	<path class="cls-1-w"
		  d="M1113.32,411.65c-1.8,0-3.13-1.8-2.94-4s1.8-4.08,3.61-4.08,3.14,1.8,3,4.08S1115.13,411.65,1113.32,411.65Z"/>
	<path class="cls-2-w"
		  d="M1168.14,361.21c-1.14.09-2.28.19-3.42.19a32.13,32.13,0,0,1-10.07-1.43c-.86-.38-1.33.29-1.62,1s-3.13,11.11-3.61,12.73a1.46,1.46,0,0,0,0,1.14c.29.19.86-.1,1.62-.48a31.89,31.89,0,0,1,10.26-1.61c1,0,2.09.09,3.13.19,5.89.66,18.15,4.94,17.48,16.72s-11.87,21.47-25,21.47-19.76-8.84-18.43-15.58a6,6,0,0,1,7.12-4.85,4.57,4.57,0,0,1,3.52,5.42c-.57,2.18-2.47,3.23-2.85,4.75s-1,5.7,7.6,6.46c9.12.85,14.72-5.7,16.72-13.87a22.65,22.65,0,0,0,.66-5.51c0-6-2.66-10.83-9.78-11.4-9.22-.76-12.73,2.66-15.2,5.7s-5.32-.1-4-1.9,3.13-2.95,3.42-4,1.23-4.56,2.66-10.45c1.23-5.13,2.75-11.12,3-13.21s3.42-2.85,5.89-1.9a40.88,40.88,0,0,0,13.3,2.47,19.15,19.15,0,0,0,6.27-.95c2.66-.95,4.27-.95,5.13-.57,1,.48,1,1.52.09,2.76C1180.39,356.84,1174.41,360.54,1168.14,361.21Z"/>
	<path class="cls-2-w"
		  d="M1198.16,411.65c-1.81,0-3.14-1.8-3-4s1.81-4.08,3.61-4.08,3.14,1.8,3,4.08S1200,411.65,1198.16,411.65Z"/>
	<path class="cls-2-w"
		  d="M1246,381.92c-1.62,10.45-3,24.32-3,25.93s-1.8,2.57-5.89,3.14-6.84-.76-6.55-3,3.13-14.82,5.22-21.09,6.65-19.67,7-20.62-.38-1-1.14-.28-5,4.75-9.31,9.5-9.12,10.64-10.54,11.87-4.56-.57-2.57-2.56,7.22-7.51,14.35-15.3,13.39-15.58,14.63-17.67a3.69,3.69,0,0,1,3-1.52c1.23.19,2.09,1.05,1.23,3.14C1250.88,357.5,1247.75,371.37,1246,381.92Z"/>
	<path class="cls-2-w"
		  d="M1289,393.22c-.29.76-.67,1.43-1.43,1.43h-19.47c-.86,0-1.71-.67-1.43-1.43l.95-2.37c.29-.76.57-1.43,1.43-1.43h19.47c.76,0,1.71.67,1.43,1.43Z"/>
	<path class="cls-2-w"
		  d="M1327.07,361.21c-1.14.09-2.28.19-3.42.19a32.19,32.19,0,0,1-10.07-1.43c-.85-.38-1.33.29-1.61,1s-3.14,11.11-3.61,12.73a1.42,1.42,0,0,0,0,1.14c.28.19.85-.1,1.61-.48a32,32,0,0,1,10.26-1.61c1,0,2.09.09,3.14.19,5.89.66,18.14,4.94,17.48,16.72s-11.88,21.47-25,21.47-19.76-8.84-18.43-15.58a6,6,0,0,1,7.13-4.85,4.55,4.55,0,0,1,3.51,5.42c-.57,2.18-2.47,3.23-2.85,4.75s-1,5.7,7.6,6.46c9.12.85,14.73-5.7,16.72-13.87a22.19,22.19,0,0,0,.67-5.51c0-6-2.66-10.83-9.79-11.4-9.21-.76-12.73,2.66-15.2,5.7s-5.32-.1-4-1.9,3.14-2.95,3.42-4,1.24-4.56,2.66-10.45c1.24-5.13,2.76-11.12,3-13.21s3.42-2.85,5.89-1.9a41,41,0,0,0,13.3,2.47,19.11,19.11,0,0,0,6.27-.95c2.66-.95,4.28-.95,5.13-.57,1,.48,1,1.52.1,2.76C1339.33,356.84,1333.34,360.54,1327.07,361.21Z"/>
	<path class="cls-2-w"
		  d="M1357.09,411.65c-1.8,0-3.13-1.8-2.94-4s1.8-4.08,3.61-4.08,3.13,1.8,2.94,4.08S1358.9,411.65,1357.09,411.65Z"/>
	<path class="cls-2-w"
		  d="M1411.71,377.93c-1.13.38-1.51.85-.57.95s11.22,2.94,12.26,11.49c1,8.93-6.65,19.76-22,21.09a27.14,27.14,0,0,1-2.85.1c-12.07,0-19.38-6.37-19.38-14.25a12.25,12.25,0,0,1,.38-3.23c1.14-4.56,4.94-5.32,7.41-4.66s4.56,2.85,4,5.32-3,2.95-3.8,5.23-.57,7.69,8.93,8.07,14.63-6.84,15.77-13-1.61-12.07-8.08-13.59c-4.46-1-9.4,2-9.78-1.23-.38-2.95,3-3.14,4.84-2.85s5.61.38,9.79-2.85c2.85-2.19,5.51-7.32,5.51-12a7.74,7.74,0,0,0-2.18-5.89,9.46,9.46,0,0,0-6.75-2.47,16,16,0,0,0-9.88,3.51,6.43,6.43,0,0,0-2.19,4.37,4.87,4.87,0,0,0,2.57,4.09c2,1.14,4.75.19,5.8,0s1.8,1.23.75,2.47c-1.23,1.42-4,3.13-8.74,2.85-2.27-.19-6.84-2.09-6.84-7a10.88,10.88,0,0,1,.48-2.85c1.61-5.23,11.21-11.69,21.66-11s16.53,6,15.48,14C1423.12,373.94,1412.85,377.45,1411.71,377.93Z"/>
	<path class="cls-3-w"
		  d="M782.36,417.5l16.19-28v56.07Zm19.67-28,16.18,28-16.18,28Zm19.19,26.31-16.18-28,48.5,28Zm-74.18,0,48.5-28-16.18,28Zm59.75-31h32.33l16.18,28Zm-45.34,0h32.29l-48.44,28Zm45.34-3.46,48.51-28-16.18,28Zm-45.34,0-16.15-28,48.44,28Zm-14.41-31h32.32l16.18,28Zm74.17,0h32.33l-48.5,28Zm-38.85-1.72,16.19-28v56.07Zm19.67-28,16.18,28-16.18,28Z"/>
	<rect class="cls-2-w" x="100" y="297.87" width="1400" height="4.25"/>
</svg>
